<svg xmlns="http://www.w3.org/2000/svg">
<!--! Font Awesome Pro 6.4.2 by @fontawesome - https://fontawesome.com License - https://fontawesome.com/license (Commercial License) Copyright 2023 Fonticons, Inc. -->
<symbol id="icon_bookmark" viewBox="0 0 384 512"><path d="M0 48V487.7C0 501.1 10.9 512 24.3 512c5 0 9.9-1.5 14-4.4L192 400 345.7 507.6c4.1 2.9 9 4.4 14 4.4c13.4 0 24.3-10.9 24.3-24.3V48c0-26.5-21.5-48-48-48H48C21.5 0 0 21.5 0 48z"/></symbol>
<symbol id="icon_calendar-check-o" viewBox="0 0 448 512"><path d="M128 0c17.7 0 32 14.3 32 32V64H288V32c0-17.7 14.3-32 32-32s32 14.3 32 32V64h48c26.5 0 48 21.5 48 48v48H0V112C0 85.5 21.5 64 48 64H96V32c0-17.7 14.3-32 32-32zM0 192H448V464c0 26.5-21.5 48-48 48H48c-26.5 0-48-21.5-48-48V192zM329 305c9.4-9.4 9.4-24.6 0-33.9s-24.6-9.4-33.9 0l-95 95-47-47c-9.4-9.4-24.6-9.4-33.9 0s-9.4 24.6 0 33.9l64 64c9.4 9.4 24.6 9.4 33.9 0L329 305z"/></symbol>
<symbol id="icon_comment" viewBox="0 0 512 512"><path d="M512 240c0 114.9-114.6 208-256 208c-37.1 0-72.3-6.4-104.1-17.9c-11.9 8.7-31.3 20.6-54.3 30.6C73.6 471.1 44.7 480 16 480c-6.5 0-12.3-3.9-14.8-9.9c-2.5-6-1.1-12.8 3.4-17.4l0 0 0 0 0 0 0 0 .3-.3c.3-.3 .7-.7 1.3-1.4c1.1-1.2 2.8-3.1 4.9-5.7c4.1-5 9.6-12.4 15.2-21.6c10-16.6 19.5-38.4 21.4-62.9C17.7 326.8 0 285.1 0 240C0 125.1 114.6 32 256 32s256 93.1 256 208z"/></symbol>
<symbol id="icon_file-text" viewBox="0 0 384 512"><path d="M64 0C28.7 0 0 28.7 0 64V448c0 35.3 28.7 64 64 64H320c35.3 0 64-28.7 64-64V160H256c-17.7 0-32-14.3-32-32V0H64zM256 0V128H384L256 0zM112 256H272c8.8 0 16 7.2 16 16s-7.2 16-16 16H112c-8.8 0-16-7.2-16-16s7.2-16 16-16zm0 64H272c8.8 0 16 7.2 16 16s-7.2 16-16 16H112c-8.8 0-16-7.2-16-16s7.2-16 16-16zm0 64H272c8.8 0 16 7.2 16 16s-7.2 16-16 16H112c-8.8 0-16-7.2-16-16s7.2-16 16-16z"/></symbol>
<symbol id="icon_headphones" viewBox="0 0 512 512"><path d="M256 80C149.9 80 62.4 159.4 49.6 262c9.4-3.8 19.6-6 30.4-6c26.5 0 48 21.5 48 48V432c0 26.5-21.5 48-48 48c-44.2 0-80-35.8-80-80V384 336 288C0 146.6 114.6 32 256 32s256 114.6 256 256v48 48 16c0 44.2-35.8 80-80 80c-26.5 0-48-21.5-48-48V304c0-26.5 21.5-48 48-48c10.8 0 21 2.1 30.4 6C449.6 159.4 362.1 80 256 80z"/></symbol>
<symbol id="icon_heart" viewBox="0 0 512 512"><path d="M47.6 300.4L228.3 469.1c7.5 7 17.4 10.9 27.7 10.9s20.2-3.9 27.7-10.9L464.4 300.4c30.4-28.3 47.6-68 47.6-109.5v-5.8c0-69.9-50.5-129.5-119.4-141C347 36.5 300.6 51.4 268 84L256 96 244 84c-32.6-32.6-79-47.5-124.6-39.9C50.5 55.6 0 115.2 0 185.1v5.8c0 41.5 17.2 81.2 47.6 109.5z"/></symbol>
<symbol id="icon_photo" viewBox="0 0 512 512"><path d="M0 96C0 60.7 28.7 32 64 32H448c35.3 0 64 28.7 64 64V416c0 35.3-28.7 64-64 64H64c-35.3 0-64-28.7-64-64V96zM323.8 202.5c-4.5-6.6-11.9-10.5-19.8-10.5s-15.4 3.9-19.8 10.5l-87 127.6L170.7 297c-4.6-5.7-11.5-9-18.7-9s-14.2 3.3-18.7 9l-64 80c-5.8 7.2-6.9 17.1-2.9 25.4s12.4 13.6 21.6 13.6h96 32H424c8.9 0 17.1-4.9 21.2-12.8s3.6-17.4-1.4-24.7l-120-176zM112 192a48 48 0 1 0 0-96 48 48 0 1 0 0 96z"/></symbol>
<symbol id="icon_map-marker" viewBox="0 0 384 512"><path d="M215.7 499.2C267 435 384 279.4 384 192C384 86 298 0 192 0S0 86 0 192c0 87.4 117 243 168.3 307.2c12.3 15.3 35.1 15.3 47.4 0zM192 128a64 64 0 1 1 0 128 64 64 0 1 1 0-128z"/></symbol>
<symbol id="icon_coffee" viewBox="0 0 640 512"><path d="M96 64c0-17.7 14.3-32 32-32H448h64c70.7 0 128 57.3 128 128s-57.3 128-128 128H480c0 53-43 96-96 96H192c-53 0-96-43-96-96V64zM480 224h32c35.3 0 64-28.7 64-64s-28.7-64-64-64H480V224zM32 416H544c17.7 0 32 14.3 32 32s-14.3 32-32 32H32c-17.7 0-32-14.3-32-32s14.3-32 32-32z"/></symbol>
<symbol id="icon_reply" viewBox="0 0 512 512"><path d="M205 34.8c11.5 5.1 19 16.6 19 29.2v64H336c97.2 0 176 78.8 176 176c0 113.3-81.5 163.9-100.2 174.1c-2.5 1.4-5.3 1.9-8.1 1.9c-10.9 0-19.7-8.9-19.7-19.7c0-7.5 4.3-14.4 9.8-19.5c9.4-8.8 22.2-26.4 22.2-56.7c0-53-43-96-96-96H224v64c0 12.6-7.4 24.1-19 29.2s-25 3-34.4-5.4l-160-144C3.9 225.7 0 217.1 0 208s3.9-17.7 10.6-23.8l160-144c9.4-8.5 22.9-10.6 34.4-5.4z"/></symbol>
<symbol id="icon_retweet" viewBox="0 0 576 512"><path d="M272 416c17.7 0 32-14.3 32-32s-14.3-32-32-32H160c-17.7 0-32-14.3-32-32V192h32c12.9 0 24.6-7.8 29.6-19.8s2.2-25.7-6.9-34.9l-64-64c-12.5-12.5-32.8-12.5-45.3 0l-64 64c-9.2 9.2-11.9 22.9-6.9 34.9s16.6 19.8 29.6 19.8l32 0 0 128c0 53 43 96 96 96H272zM304 96c-17.7 0-32 14.3-32 32s14.3 32 32 32l112 0c17.7 0 32 14.3 32 32l0 128H416c-12.9 0-24.6 7.8-29.6 19.8s-2.2 25.7 6.9 34.9l64 64c12.5 12.5 32.8 12.5 45.3 0l64-64c9.2-9.2 11.9-22.9 6.9-34.9s-16.6-19.8-29.6-19.8l-32 0V192c0-53-43-96-96-96L304 96z"/></symbol>
<symbol id="icon_twitter" viewBox="0 0 512 512"><path d="M459.37 151.716c.325 4.548.325 9.097.325 13.645 0 138.72-105.583 298.558-298.558 298.558-59.452 0-114.68-17.219-161.137-47.106 8.447.974 16.568 1.299 25.34 1.299 49.055 0 94.213-16.568 130.274-44.832-46.132-.975-84.792-31.188-98.112-72.772 6.498.974 12.995 1.624 19.818 1.624 9.421 0 18.843-1.3 27.614-3.573-48.081-9.747-84.143-51.98-84.143-102.985v-1.299c13.969 7.797 30.214 12.67 47.431 13.319-28.264-18.843-46.781-51.005-46.781-87.391 0-19.492 5.197-37.36 14.294-52.954 51.655 63.675 129.3 105.258 216.365 109.807-1.624-7.797-2.599-15.918-2.599-24.04 0-57.828 46.782-104.934 104.934-104.934 30.213 0 57.502 12.67 76.67 33.137 23.715-4.548 46.456-13.32 66.599-25.34-7.798 24.366-24.366 44.833-46.132 57.827 21.117-2.273 41.584-8.122 60.426-16.243-14.292 20.791-32.161 39.308-52.628 54.253z"/></symbol>
<symbol id="icon_cutlery" viewBox="0 0 448 512"><path d="M416 0C400 0 288 32 288 176V288c0 35.3 28.7 64 64 64h32V480c0 17.7 14.3 32 32 32s32-14.3 32-32V352 240 32c0-17.7-14.3-32-32-32zM64 16C64 7.8 57.9 1 49.7 .1S34.2 4.6 32.4 12.5L2.1 148.8C.7 155.1 0 161.5 0 167.9c0 45.9 35.1 83.6 80 87.7V480c0 17.7 14.3 32 32 32s32-14.3 32-32V255.6c44.9-4.1 80-41.8 80-87.7c0-6.4-.7-12.8-2.1-19.1L191.6 12.5c-1.8-8-9.3-13.3-17.4-12.4S160 7.8 160 16V150.2c0 5.4-4.4 9.8-9.8 9.8c-5.1 0-9.3-3.9-9.8-9L127.9 14.6C127.2 6.3 120.3 0 112 0s-15.2 6.3-15.9 14.6L83.7 151c-.5 5.1-4.7 9-9.8 9c-5.4 0-9.8-4.4-9.8-9.8V16zm48.3 152l-.3 0-.3 0 .3-.7 .3 .7z"/></symbol>
</svg>